<svg xmlns="http://www.w3.org/2000/svg" xmlns:xlink="http://www.w3.org/1999/xlink" width="500" zoomAndPan="magnify" viewBox="0 0 375 374.999991" height="500" preserveAspectRatio="xMidYMid meet" version="1.0"><defs><clipPath id="2169bf08b7"><path d="M 72.730469 114.621094 L 302.230469 114.621094 L 302.230469 260.121094 L 72.730469 260.121094 Z M 72.730469 114.621094 " clip-rule="nonzero"/></clipPath><clipPath id="0057159623"><path d="M 67.253906 107.667969 L 308 107.667969 L 308 260.667969 L 67.253906 260.667969 Z M 67.253906 107.667969 " clip-rule="nonzero"/></clipPath></defs><g clip-path="url(#2169bf08b7)"><path fill="#008ba4" d="M 250.328125 260.21875 L 115.234375 260.21875 C 91.839844 260.21875 72.804688 240.84375 72.804688 217.035156 C 72.804688 197.988281 84.984375 181.410156 102.726562 175.867188 C 108.257812 140.875 138.089844 114.804688 173.128906 114.804688 C 199.882812 114.804688 224.453125 130.273438 236.613281 154.492188 C 240.632812 153.550781 244.730469 153.074219 248.828125 153.074219 C 278.371094 153.074219 302.402344 177.105469 302.402344 206.644531 C 302.402344 235.140625 280.089844 258.613281 251.601562 260.078125 C 251.210938 260.164062 250.789062 260.21875 250.328125 260.21875 Z M 173.128906 122.460938 C 141.109375 122.460938 113.953125 146.914062 109.964844 179.339844 C 109.777344 180.917969 108.628906 182.210938 107.082031 182.59375 C 91.40625 186.453125 80.460938 200.617188 80.460938 217.035156 C 80.460938 236.621094 96.054688 252.5625 115.234375 252.5625 L 250.328125 252.5625 C 250.394531 252.558594 251.140625 252.445312 251.207031 252.445312 C 275.625 251.179688 294.75 231.066406 294.75 206.644531 C 294.75 181.324219 274.152344 160.722656 248.828125 160.722656 C 244.386719 160.722656 239.9375 161.378906 235.617188 162.675781 C 233.800781 163.238281 231.816406 162.328125 231.023438 160.574219 C 220.667969 137.421875 197.945312 122.460938 173.128906 122.460938 Z M 173.128906 122.460938 " fill-opacity="1" fill-rule="nonzero"/></g><g clip-path="url(#0057159623)"><path fill="#ffde59" d="M 253.320312 260.210938 L 111.785156 260.210938 C 87.277344 260.210938 67.335938 239.910156 67.335938 214.964844 C 67.335938 195.007812 80.09375 177.640625 98.683594 171.835938 C 104.476562 135.175781 135.730469 107.859375 172.445312 107.859375 C 200.472656 107.859375 226.214844 124.066406 238.953125 149.441406 C 243.164062 148.453125 247.457031 147.953125 251.753906 147.953125 C 282.703125 147.953125 307.878906 173.132812 307.878906 204.078125 C 307.878906 233.9375 284.503906 258.527344 254.65625 260.0625 C 254.246094 260.152344 253.804688 260.210938 253.320312 260.210938 Z M 172.445312 115.878906 C 138.894531 115.878906 110.445312 141.5 106.269531 175.472656 C 106.070312 177.128906 104.867188 178.480469 103.246094 178.878906 C 86.824219 182.925781 75.355469 197.765625 75.355469 214.964844 C 75.355469 235.484375 91.695312 252.1875 111.785156 252.1875 L 253.320312 252.1875 C 253.394531 252.183594 254.171875 252.0625 254.242188 252.0625 C 279.824219 250.738281 299.863281 229.664062 299.863281 204.078125 C 299.863281 177.550781 278.28125 155.96875 251.75 155.96875 C 247.097656 155.96875 242.4375 156.65625 237.910156 158.015625 C 236.007812 158.605469 233.929688 157.648438 233.097656 155.8125 C 222.25 131.554688 198.441406 115.878906 172.445312 115.878906 Z M 172.445312 115.878906 " fill-opacity="1" fill-rule="nonzero"/></g></svg>