<svg xmlns="http://www.w3.org/2000/svg" xmlns:xlink="http://www.w3.org/1999/xlink" width="250" zoomAndPan="magnify" viewBox="0 0 187.5 37.5" height="50" preserveAspectRatio="xMidYMid meet" version="1.0"><defs><g/><clipPath id="dec6f71fcd"><path d="M 53.019531 9.855469 L 80.664062 9.855469 L 80.664062 26.964844 L 53.019531 26.964844 Z M 53.019531 9.855469 " clip-rule="nonzero"/></clipPath></defs><g fill="#090909" fill-opacity="1"><g transform="translate(17.435026, 26.747013)"><g><path d="M 13.28125 0.296875 C 11.664062 0.296875 10.15625 -0.00390625 8.75 -0.609375 C 7.351562 -1.210938 6.117188 -2.050781 5.046875 -3.125 C 3.972656 -4.195312 3.132812 -5.429688 2.53125 -6.828125 C 1.925781 -8.234375 1.625 -9.742188 1.625 -11.359375 C 1.625 -12.972656 1.925781 -14.476562 2.53125 -15.875 C 3.132812 -17.28125 3.972656 -18.519531 5.046875 -19.59375 C 6.117188 -20.664062 7.351562 -21.503906 8.75 -22.109375 C 10.15625 -22.710938 11.664062 -23.015625 13.28125 -23.015625 C 15.5 -23.015625 17.507812 -22.453125 19.3125 -21.328125 C 21.125 -20.203125 22.519531 -18.734375 23.5 -16.921875 L 20.328125 -15.21875 C 19.671875 -16.476562 18.71875 -17.476562 17.46875 -18.21875 C 16.21875 -18.96875 14.820312 -19.34375 13.28125 -19.34375 C 11.789062 -19.34375 10.441406 -18.988281 9.234375 -18.28125 C 8.023438 -17.570312 7.066406 -16.617188 6.359375 -15.421875 C 5.648438 -14.222656 5.296875 -12.867188 5.296875 -11.359375 C 5.296875 -9.835938 5.648438 -8.476562 6.359375 -7.28125 C 7.066406 -6.082031 8.023438 -5.128906 9.234375 -4.421875 C 10.441406 -3.722656 11.789062 -3.375 13.28125 -3.375 C 14.820312 -3.375 16.21875 -3.75 17.46875 -4.5 C 18.71875 -5.257812 19.671875 -6.257812 20.328125 -7.5 L 23.5 -5.796875 C 22.519531 -3.972656 21.125 -2.5 19.3125 -1.375 C 17.507812 -0.257812 15.5 0.296875 13.28125 0.296875 Z M 13.28125 0.296875 "/></g></g></g><g fill="#090909" fill-opacity="1"><g transform="translate(41.431212, 26.747013)"><g><path d="M 2.5 0 L 2.5 -26.953125 L 6.09375 -26.953125 L 6.09375 0 Z M 2.5 0 "/></g></g></g><g fill="#090909" fill-opacity="1"><g transform="translate(49.423133, 26.747013)"><g/></g></g><g fill="#090909" fill-opacity="1"><g transform="translate(57.901263, 26.747013)"><g/></g></g><g fill="#090909" fill-opacity="1"><g transform="translate(66.379394, 26.747013)"><g/></g></g><g fill="#090909" fill-opacity="1"><g transform="translate(74.857524, 26.747013)"><g/></g></g><g fill="#090909" fill-opacity="1"><g transform="translate(83.337323, 26.747013)"><g><path d="M 14 -26.953125 L 17.59375 -26.953125 L 17.59375 0 L 14 0 L 14 -1.59375 C 13.375 -1.007812 12.644531 -0.546875 11.8125 -0.203125 C 10.976562 0.128906 10.082031 0.296875 9.125 0.296875 C 7.707031 0.296875 6.410156 -0.0507812 5.234375 -0.75 C 4.066406 -1.457031 3.140625 -2.40625 2.453125 -3.59375 C 1.773438 -4.78125 1.4375 -6.109375 1.4375 -7.578125 C 1.4375 -9.035156 1.773438 -10.359375 2.453125 -11.546875 C 3.140625 -12.734375 4.066406 -13.675781 5.234375 -14.375 C 6.410156 -15.082031 7.707031 -15.4375 9.125 -15.4375 C 10.082031 -15.4375 10.976562 -15.265625 11.8125 -14.921875 C 12.644531 -14.585938 13.375 -14.128906 14 -13.546875 Z M 9.578125 -3.03125 C 10.410156 -3.03125 11.171875 -3.226562 11.859375 -3.625 C 12.554688 -4.03125 13.109375 -4.582031 13.515625 -5.28125 C 13.921875 -5.976562 14.125 -6.742188 14.125 -7.578125 C 14.125 -8.429688 13.921875 -9.195312 13.515625 -9.875 C 13.109375 -10.5625 12.554688 -11.101562 11.859375 -11.5 C 11.171875 -11.90625 10.410156 -12.109375 9.578125 -12.109375 C 8.742188 -12.109375 7.976562 -11.90625 7.28125 -11.5 C 6.59375 -11.101562 6.046875 -10.5625 5.640625 -9.875 C 5.234375 -9.195312 5.03125 -8.429688 5.03125 -7.578125 C 5.03125 -6.742188 5.234375 -5.976562 5.640625 -5.28125 C 6.046875 -4.582031 6.59375 -4.03125 7.28125 -3.625 C 7.976562 -3.226562 8.742188 -3.03125 9.578125 -3.03125 Z M 9.578125 -3.03125 "/></g></g></g><g fill="#008ba4" fill-opacity="1"><g transform="translate(102.834207, 26.747013)"><g><path d="M 6.203125 -3.4375 L 14.1875 -3.4375 L 14.1875 0 L 2.5 0 L 2.5 -22.71875 L 6.203125 -22.71875 Z M 6.203125 -3.4375 "/></g></g></g><g fill="#008ba4" fill-opacity="1"><g transform="translate(116.61118, 26.747013)"><g><path d="M 12.375 -15.140625 L 16.234375 -15.140625 L 6.515625 9.078125 L 2.71875 9.078125 L 6.328125 0.265625 L 0.078125 -15.140625 L 3.90625 -15.140625 L 8.21875 -3.9375 Z M 12.375 -15.140625 "/></g></g></g><g fill="#008ba4" fill-opacity="1"><g transform="translate(132.318452, 26.747013)"><g><path d="M 10 -15.4375 C 10.976562 -15.4375 11.882812 -15.175781 12.71875 -14.65625 C 13.550781 -14.144531 14.222656 -13.453125 14.734375 -12.578125 C 15.253906 -11.710938 15.515625 -10.722656 15.515625 -9.609375 L 15.515625 0 L 11.96875 0 L 11.96875 -9.234375 C 11.96875 -10.046875 11.6875 -10.726562 11.125 -11.28125 C 10.570312 -11.832031 9.878906 -12.109375 9.046875 -12.109375 C 8.210938 -12.109375 7.507812 -11.832031 6.9375 -11.28125 C 6.375 -10.726562 6.09375 -10.046875 6.09375 -9.234375 L 6.09375 0 L 2.5 0 L 2.5 -15.140625 L 6.09375 -15.140625 L 6.09375 -13.703125 C 7.175781 -14.859375 8.476562 -15.4375 10 -15.4375 Z M 10 -15.4375 "/></g></g></g><g fill="#008ba4" fill-opacity="1"><g transform="translate(149.463978, 26.747013)"><g><path d="M 19.609375 5.828125 L 21 5.828125 L 21 8.78125 C 20.476562 8.976562 19.863281 9.078125 19.15625 9.078125 C 18.25 9.078125 17.398438 8.859375 16.609375 8.421875 C 15.828125 7.984375 15.195312 7.382812 14.71875 6.625 C 14.238281 5.863281 14 5.019531 14 4.09375 L 14 -1.59375 C 13.375 -1.007812 12.644531 -0.546875 11.8125 -0.203125 C 10.976562 0.128906 10.082031 0.296875 9.125 0.296875 C 7.707031 0.296875 6.410156 -0.0507812 5.234375 -0.75 C 4.066406 -1.457031 3.140625 -2.40625 2.453125 -3.59375 C 1.773438 -4.78125 1.4375 -6.109375 1.4375 -7.578125 C 1.4375 -9.035156 1.773438 -10.359375 2.453125 -11.546875 C 3.140625 -12.734375 4.066406 -13.675781 5.234375 -14.375 C 6.410156 -15.082031 7.707031 -15.4375 9.125 -15.4375 C 10.082031 -15.4375 10.976562 -15.265625 11.8125 -14.921875 C 12.644531 -14.585938 13.375 -14.128906 14 -13.546875 L 14 -15.140625 L 17.59375 -15.140625 L 17.59375 3.671875 C 17.59375 4.328125 17.789062 4.847656 18.1875 5.234375 C 18.582031 5.628906 19.054688 5.828125 19.609375 5.828125 Z M 9.578125 -3.03125 C 10.410156 -3.03125 11.171875 -3.226562 11.859375 -3.625 C 12.554688 -4.03125 13.109375 -4.582031 13.515625 -5.28125 C 13.921875 -5.976562 14.125 -6.742188 14.125 -7.578125 C 14.125 -8.429688 13.921875 -9.195312 13.515625 -9.875 C 13.109375 -10.5625 12.554688 -11.101562 11.859375 -11.5 C 11.171875 -11.90625 10.410156 -12.109375 9.578125 -12.109375 C 8.742188 -12.109375 7.976562 -11.90625 7.28125 -11.5 C 6.59375 -11.101562 6.046875 -10.5625 5.640625 -9.875 C 5.234375 -9.195312 5.03125 -8.429688 5.03125 -7.578125 C 5.03125 -6.742188 5.234375 -5.976562 5.640625 -5.28125 C 6.046875 -4.582031 6.59375 -4.03125 7.28125 -3.625 C 7.976562 -3.226562 8.742188 -3.03125 9.578125 -3.03125 Z M 9.578125 -3.03125 "/></g></g></g><g clip-path="url(#dec6f71fcd)"><path fill="#090909" d="M 74.265625 27.273438 L 58.105469 27.273438 C 55.304688 27.273438 53.027344 24.957031 53.027344 22.109375 C 53.027344 19.828125 54.484375 17.847656 56.609375 17.183594 C 57.269531 12.996094 60.839844 9.878906 65.03125 9.878906 C 68.230469 9.878906 71.167969 11.730469 72.625 14.625 C 73.105469 14.511719 73.59375 14.457031 74.085938 14.457031 C 77.621094 14.457031 80.496094 17.332031 80.496094 20.863281 C 80.496094 24.273438 77.824219 27.082031 74.417969 27.257812 C 74.371094 27.265625 74.320312 27.273438 74.265625 27.273438 Z M 65.03125 10.792969 C 61.199219 10.792969 57.949219 13.71875 57.472656 17.597656 C 57.449219 17.789062 57.3125 17.941406 57.128906 17.988281 C 55.253906 18.449219 53.945312 20.144531 53.945312 22.109375 C 53.945312 24.449219 55.808594 26.359375 58.105469 26.359375 L 74.265625 26.359375 C 74.273438 26.359375 74.363281 26.34375 74.371094 26.34375 C 77.289062 26.191406 79.578125 23.785156 79.578125 20.863281 C 79.578125 17.835938 77.113281 15.371094 74.085938 15.371094 C 73.554688 15.371094 73.023438 15.449219 72.503906 15.605469 C 72.289062 15.671875 72.050781 15.5625 71.957031 15.355469 C 70.714844 12.582031 68 10.792969 65.03125 10.792969 Z M 65.03125 10.792969 " fill-opacity="1" fill-rule="nonzero"/></g></svg>